<mxfile host="processflow.sharehoo.cn" modified="2021-04-06T06:58:54.647Z" agent="5.0 (Windows NT 10.0; Win64; x64) AppleWebKit/537.36 (KHTML, like Gecko) Chrome/89.0.4389.114 Safari/537.36" etag="_j-kS7cMUKxCTk9AoOE9" version="14.3.2" type="github">
  <diagram id="ALSrLkM7NoTAbwWm-Tqr" name="Page-1">
    <mxGraphModel dx="1422" dy="794" grid="1" gridSize="10" guides="1" tooltips="1" connect="1" arrows="1" fold="1" page="1" pageScale="1" pageWidth="827" pageHeight="1169" math="0" shadow="0">
      <root>
        <mxCell id="0" />
        <mxCell id="1" parent="0" />
        <mxCell id="fcsJN2qr-9h00e084uWn-1" value="" style="endArrow=none;html=1;" parent="1" edge="1">
          <mxGeometry width="50" height="50" relative="1" as="geometry">
            <mxPoint x="80" y="550" as="sourcePoint" />
            <mxPoint x="2430" y="550" as="targetPoint" />
          </mxGeometry>
        </mxCell>
        <mxCell id="x_IjrBmh7rydG-k_5fCS-1" value="&lt;span style=&quot;color: rgb(51 , 51 , 51) ; font-family: &amp;#34;open sans&amp;#34; , &amp;#34;clear sans&amp;#34; , &amp;#34;helvetica neue&amp;#34; , &amp;#34;helvetica&amp;#34; , &amp;#34;arial&amp;#34; , sans-serif ; font-size: 16px ; text-align: left ; background-color: rgb(255 , 255 , 255)&quot;&gt;&lt;b&gt;dwi_facility_instance&lt;/b&gt;&lt;/span&gt;" style="rounded=0;whiteSpace=wrap;html=1;" parent="1" vertex="1">
          <mxGeometry x="120" y="440" width="210" height="40" as="geometry" />
        </mxCell>
        <mxCell id="x_IjrBmh7rydG-k_5fCS-2" value="&lt;span style=&quot;color: rgb(51 , 51 , 51) ; font-family: &amp;#34;open sans&amp;#34; , &amp;#34;clear sans&amp;#34; , &amp;#34;helvetica neue&amp;#34; , &amp;#34;helvetica&amp;#34; , &amp;#34;arial&amp;#34; , sans-serif ; font-size: 16px ; text-align: left ; background-color: rgb(248 , 248 , 248)&quot;&gt;&lt;b&gt;dwi_space_record&lt;/b&gt;&lt;/span&gt;" style="rounded=0;whiteSpace=wrap;html=1;" parent="1" vertex="1">
          <mxGeometry x="390" y="440" width="210" height="40" as="geometry" />
        </mxCell>
        <mxCell id="x_IjrBmh7rydG-k_5fCS-4" value="&lt;span style=&quot;color: rgb(51 , 51 , 51) ; font-family: &amp;#34;open sans&amp;#34; , &amp;#34;clear sans&amp;#34; , &amp;#34;helvetica neue&amp;#34; , &amp;#34;helvetica&amp;#34; , &amp;#34;arial&amp;#34; , sans-serif ; font-size: 16px ; text-align: left ; background-color: rgb(248 , 248 , 248)&quot;&gt;&lt;b&gt;dwi_facility_access_device_video_info&lt;/b&gt;&lt;/span&gt;" style="rounded=0;whiteSpace=wrap;html=1;" parent="1" vertex="1">
          <mxGeometry x="990" y="440" width="350" height="40" as="geometry" />
        </mxCell>
        <mxCell id="x_IjrBmh7rydG-k_5fCS-5" value="&lt;span style=&quot;color: rgb(51 , 51 , 51) ; font-family: &amp;#34;open sans&amp;#34; , &amp;#34;clear sans&amp;#34; , &amp;#34;helvetica neue&amp;#34; , &amp;#34;helvetica&amp;#34; , &amp;#34;arial&amp;#34; , sans-serif ; font-size: 16px ; text-align: left ; background-color: rgb(255 , 255 , 255)&quot;&gt;&lt;b&gt;dwi_space_access_guard_info&lt;/b&gt;&lt;/span&gt;" style="rounded=0;whiteSpace=wrap;html=1;" parent="1" vertex="1">
          <mxGeometry x="660" y="440" width="270" height="40" as="geometry" />
        </mxCell>
        <mxCell id="x_IjrBmh7rydG-k_5fCS-6" value="&lt;span style=&quot;color: rgb(51 , 51 , 51) ; font-family: &amp;#34;open sans&amp;#34; , &amp;#34;clear sans&amp;#34; , &amp;#34;helvetica neue&amp;#34; , &amp;#34;helvetica&amp;#34; , &amp;#34;arial&amp;#34; , sans-serif ; font-size: 16px ; text-align: left ; background-color: rgb(255 , 255 , 255)&quot;&gt;&lt;b&gt;dwi_facility_access_device_info&lt;/b&gt;&lt;/span&gt;" style="rounded=0;whiteSpace=wrap;html=1;" parent="1" vertex="1">
          <mxGeometry x="1400" y="440" width="280" height="40" as="geometry" />
        </mxCell>
        <mxCell id="x_IjrBmh7rydG-k_5fCS-7" value="&lt;div style=&quot;background-color: rgb(255 , 255 , 254) ; font-family: &amp;#34;consolas&amp;#34; , &amp;#34;courier new&amp;#34; , monospace ; line-height: 19px&quot;&gt;&lt;b&gt;&lt;font style=&quot;font-size: 16px&quot;&gt;DE_Devices&lt;/font&gt;&lt;/b&gt;&lt;/div&gt;" style="rounded=0;whiteSpace=wrap;html=1;" parent="1" vertex="1">
          <mxGeometry x="130" y="610" width="170" height="70" as="geometry" />
        </mxCell>
        <mxCell id="x_IjrBmh7rydG-k_5fCS-8" value="&lt;div style=&quot;background-color: rgb(255 , 255 , 254) ; font-family: &amp;#34;consolas&amp;#34; , &amp;#34;courier new&amp;#34; , monospace ; line-height: 19px&quot;&gt;&lt;b&gt;&lt;font style=&quot;font-size: 16px&quot;&gt;SPA_Basic&lt;/font&gt;&lt;/b&gt;&lt;/div&gt;" style="rounded=0;whiteSpace=wrap;html=1;" parent="1" vertex="1">
          <mxGeometry x="410" y="610" width="170" height="70" as="geometry" />
        </mxCell>
        <mxCell id="x_IjrBmh7rydG-k_5fCS-11" value="&lt;div style=&quot;background-color: rgb(255 , 255 , 254) ; font-family: &amp;#34;consolas&amp;#34; , &amp;#34;courier new&amp;#34; , monospace ; line-height: 19px&quot;&gt;&lt;font style=&quot;font-size: 16px&quot;&gt;&lt;b&gt;SmartCampus__AccessDevice__CST&lt;/b&gt;&lt;/font&gt;&lt;/div&gt;" style="rounded=0;whiteSpace=wrap;html=1;" parent="1" vertex="1">
          <mxGeometry x="1400" y="610" width="295" height="70" as="geometry" />
        </mxCell>
        <mxCell id="x_IjrBmh7rydG-k_5fCS-12" value="&lt;div style=&quot;background-color: rgb(255 , 255 , 254) ; font-family: &amp;#34;consolas&amp;#34; , &amp;#34;courier new&amp;#34; , monospace ; line-height: 19px&quot;&gt;&lt;div style=&quot;font-family: &amp;#34;consolas&amp;#34; , &amp;#34;courier new&amp;#34; , monospace ; line-height: 19px&quot;&gt;&lt;font style=&quot;font-size: 16px&quot;&gt;&lt;b&gt;SmartCampus__FaceAccessRecord__CST&lt;/b&gt;&lt;/font&gt;&lt;/div&gt;&lt;/div&gt;" style="rounded=0;whiteSpace=wrap;html=1;" parent="1" vertex="1">
          <mxGeometry x="1740" y="610" width="330" height="70" as="geometry" />
        </mxCell>
        <mxCell id="x_IjrBmh7rydG-k_5fCS-13" value="&lt;span style=&quot;color: rgb(51 , 51 , 51) ; text-align: left ; background-color: rgb(255 , 255 , 255)&quot;&gt;&lt;font style=&quot;font-size: 16px&quot;&gt;&lt;b&gt;dwi_person_swing_face&lt;/b&gt;&lt;/font&gt;&lt;/span&gt;" style="rounded=0;whiteSpace=wrap;html=1;" parent="1" vertex="1">
          <mxGeometry x="1760" y="440" width="280" height="40" as="geometry" />
        </mxCell>
        <mxCell id="x_IjrBmh7rydG-k_5fCS-16" value="&lt;div style=&quot;background-color: rgb(255 , 255 , 254) ; font-family: &amp;#34;consolas&amp;#34; , &amp;#34;courier new&amp;#34; , monospace ; line-height: 19px&quot;&gt;&lt;font style=&quot;font-size: 16px&quot;&gt;&lt;b&gt;SmartCampus__AccessRelatedDevice__CST&lt;/b&gt;&lt;/font&gt;&lt;/div&gt;" style="rounded=0;whiteSpace=wrap;html=1;" parent="1" vertex="1">
          <mxGeometry x="985" y="610" width="360" height="70" as="geometry" />
        </mxCell>
        <mxCell id="x_IjrBmh7rydG-k_5fCS-17" value="&lt;div style=&quot;background-color: rgb(255 , 255 , 254) ; font-family: &amp;#34;consolas&amp;#34; , &amp;#34;courier new&amp;#34; , monospace ; line-height: 19px&quot;&gt;&lt;b&gt;&lt;font style=&quot;font-size: 16px&quot;&gt;SmartCampus__AccessGuard__CST&lt;/font&gt;&lt;/b&gt;&lt;/div&gt;" style="rounded=0;whiteSpace=wrap;html=1;" parent="1" vertex="1">
          <mxGeometry x="645" y="610" width="300" height="70" as="geometry" />
        </mxCell>
        <mxCell id="x_IjrBmh7rydG-k_5fCS-18" value="" style="shape=flexArrow;endArrow=classic;html=1;" parent="1" edge="1">
          <mxGeometry width="50" height="50" relative="1" as="geometry">
            <mxPoint x="214.41000000000003" y="584.5" as="sourcePoint" />
            <mxPoint x="214.41000000000003" y="504.5" as="targetPoint" />
            <Array as="points">
              <mxPoint x="214.41000000000003" y="544.5" />
            </Array>
          </mxGeometry>
        </mxCell>
        <mxCell id="x_IjrBmh7rydG-k_5fCS-19" value="" style="shape=flexArrow;endArrow=classic;html=1;" parent="1" edge="1">
          <mxGeometry width="50" height="50" relative="1" as="geometry">
            <mxPoint x="1539.41" y="585" as="sourcePoint" />
            <mxPoint x="1539.41" y="505" as="targetPoint" />
            <Array as="points">
              <mxPoint x="1539.41" y="545" />
            </Array>
          </mxGeometry>
        </mxCell>
        <mxCell id="x_IjrBmh7rydG-k_5fCS-20" value="" style="shape=flexArrow;endArrow=classic;html=1;" parent="1" edge="1">
          <mxGeometry width="50" height="50" relative="1" as="geometry">
            <mxPoint x="1164.41" y="585" as="sourcePoint" />
            <mxPoint x="1164.41" y="505" as="targetPoint" />
            <Array as="points">
              <mxPoint x="1164.41" y="545" />
            </Array>
          </mxGeometry>
        </mxCell>
        <mxCell id="x_IjrBmh7rydG-k_5fCS-21" value="" style="shape=flexArrow;endArrow=classic;html=1;" parent="1" edge="1">
          <mxGeometry width="50" height="50" relative="1" as="geometry">
            <mxPoint x="794.41" y="585" as="sourcePoint" />
            <mxPoint x="794.41" y="505" as="targetPoint" />
            <Array as="points">
              <mxPoint x="794.41" y="545" />
            </Array>
          </mxGeometry>
        </mxCell>
        <mxCell id="x_IjrBmh7rydG-k_5fCS-22" value="" style="shape=flexArrow;endArrow=classic;html=1;" parent="1" edge="1">
          <mxGeometry width="50" height="50" relative="1" as="geometry">
            <mxPoint x="494.41000000000014" y="585" as="sourcePoint" />
            <mxPoint x="494.41000000000014" y="505" as="targetPoint" />
            <Array as="points">
              <mxPoint x="494.41" y="545" />
            </Array>
          </mxGeometry>
        </mxCell>
        <mxCell id="x_IjrBmh7rydG-k_5fCS-23" value="" style="shape=flexArrow;endArrow=classic;html=1;" parent="1" edge="1">
          <mxGeometry width="50" height="50" relative="1" as="geometry">
            <mxPoint x="1899.4099999999999" y="584.5" as="sourcePoint" />
            <mxPoint x="1899.4099999999999" y="504.5" as="targetPoint" />
            <Array as="points">
              <mxPoint x="1899.41" y="544.5" />
            </Array>
          </mxGeometry>
        </mxCell>
        <mxCell id="x_IjrBmh7rydG-k_5fCS-24" value="&lt;font size=&quot;1&quot;&gt;&lt;b style=&quot;font-size: 35px&quot;&gt;ABC&lt;/b&gt;&lt;/font&gt;" style="text;html=1;strokeColor=none;fillColor=none;align=center;verticalAlign=middle;whiteSpace=wrap;rounded=0;" parent="1" vertex="1">
          <mxGeometry x="2281" y="550" width="200" height="100" as="geometry" />
        </mxCell>
        <mxCell id="x_IjrBmh7rydG-k_5fCS-25" value="&lt;font size=&quot;1&quot;&gt;&lt;b style=&quot;font-size: 35px&quot;&gt;DO&lt;/b&gt;&lt;/font&gt;" style="text;html=1;strokeColor=none;fillColor=none;align=center;verticalAlign=middle;whiteSpace=wrap;rounded=0;" parent="1" vertex="1">
          <mxGeometry x="2281" width="200" height="100" as="geometry" />
        </mxCell>
        <mxCell id="x_IjrBmh7rydG-k_5fCS-26" value="&lt;span style=&quot;color: rgb(51 , 51 , 51) ; font-family: &amp;#34;open sans&amp;#34; , &amp;#34;clear sans&amp;#34; , &amp;#34;helvetica neue&amp;#34; , &amp;#34;helvetica&amp;#34; , &amp;#34;arial&amp;#34; , sans-serif ; font-size: 16px ; text-align: left ; background-color: rgb(255 , 255 , 255)&quot;&gt;&lt;b&gt;dim_facility_instance_d&lt;/b&gt;&lt;/span&gt;" style="rounded=0;whiteSpace=wrap;html=1;" parent="1" vertex="1">
          <mxGeometry x="120" y="260" width="210" height="40" as="geometry" />
        </mxCell>
        <mxCell id="x_IjrBmh7rydG-k_5fCS-27" value="" style="endArrow=none;dashed=1;html=1;strokeWidth=2;" parent="1" edge="1">
          <mxGeometry width="50" height="50" relative="1" as="geometry">
            <mxPoint x="80" y="360" as="sourcePoint" />
            <mxPoint x="2430" y="360" as="targetPoint" />
          </mxGeometry>
        </mxCell>
        <mxCell id="x_IjrBmh7rydG-k_5fCS-28" value="&lt;font size=&quot;1&quot;&gt;&lt;b style=&quot;font-size: 25px&quot;&gt;DWI&lt;/b&gt;&lt;/font&gt;" style="text;html=1;strokeColor=none;fillColor=none;align=center;verticalAlign=middle;whiteSpace=wrap;rounded=0;" parent="1" vertex="1">
          <mxGeometry x="2070" y="410" width="200" height="100" as="geometry" />
        </mxCell>
        <mxCell id="x_IjrBmh7rydG-k_5fCS-29" value="&lt;span style=&quot;color: rgb(51 , 51 , 51) ; font-family: &amp;#34;open sans&amp;#34; , &amp;#34;clear sans&amp;#34; , &amp;#34;helvetica neue&amp;#34; , &amp;#34;helvetica&amp;#34; , &amp;#34;arial&amp;#34; , sans-serif ; font-size: 16px ; text-align: left ; background-color: rgb(248 , 248 , 248)&quot;&gt;&lt;b&gt;dim_space_record_d&lt;/b&gt;&lt;/span&gt;" style="rounded=0;whiteSpace=wrap;html=1;" parent="1" vertex="1">
          <mxGeometry x="390" y="260" width="210" height="40" as="geometry" />
        </mxCell>
        <mxCell id="x_IjrBmh7rydG-k_5fCS-31" value="&lt;span style=&quot;color: rgb(51 , 51 , 51) ; font-family: &amp;#34;open sans&amp;#34; , &amp;#34;clear sans&amp;#34; , &amp;#34;helvetica neue&amp;#34; , &amp;#34;helvetica&amp;#34; , &amp;#34;arial&amp;#34; , sans-serif ; font-size: 16px ; text-align: left ; background-color: rgb(255 , 255 , 255)&quot;&gt;&lt;b&gt;dim_space_guard_device_d&lt;/b&gt;&lt;/span&gt;" style="rounded=0;whiteSpace=wrap;html=1;" parent="1" vertex="1">
          <mxGeometry x="1030" y="260" width="270" height="40" as="geometry" />
        </mxCell>
        <mxCell id="x_IjrBmh7rydG-k_5fCS-36" value="" style="shape=flexArrow;endArrow=classic;html=1;" parent="1" edge="1">
          <mxGeometry width="50" height="50" relative="1" as="geometry">
            <mxPoint x="1164.41" y="420" as="sourcePoint" />
            <mxPoint x="1164.41" y="310" as="targetPoint" />
          </mxGeometry>
        </mxCell>
        <mxCell id="x_IjrBmh7rydG-k_5fCS-39" value="" style="shape=flexArrow;endArrow=classic;html=1;" parent="1" edge="1">
          <mxGeometry width="50" height="50" relative="1" as="geometry">
            <mxPoint x="794.4099999999999" y="420" as="sourcePoint" />
            <mxPoint x="1140" y="320" as="targetPoint" />
          </mxGeometry>
        </mxCell>
        <mxCell id="x_IjrBmh7rydG-k_5fCS-40" value="" style="shape=flexArrow;endArrow=classic;html=1;" parent="1" edge="1">
          <mxGeometry width="50" height="50" relative="1" as="geometry">
            <mxPoint x="1539.4099999999999" y="420" as="sourcePoint" />
            <mxPoint x="1190" y="320" as="targetPoint" />
          </mxGeometry>
        </mxCell>
        <mxCell id="x_IjrBmh7rydG-k_5fCS-41" value="" style="shape=flexArrow;endArrow=classic;html=1;" parent="1" edge="1">
          <mxGeometry width="50" height="50" relative="1" as="geometry">
            <mxPoint x="214.41000000000008" y="420" as="sourcePoint" />
            <mxPoint x="214" y="320" as="targetPoint" />
            <Array as="points">
              <mxPoint x="214.41000000000003" y="380" />
            </Array>
          </mxGeometry>
        </mxCell>
        <mxCell id="x_IjrBmh7rydG-k_5fCS-42" value="" style="shape=flexArrow;endArrow=classic;html=1;" parent="1" edge="1">
          <mxGeometry width="50" height="50" relative="1" as="geometry">
            <mxPoint x="494.4100000000001" y="420" as="sourcePoint" />
            <mxPoint x="494" y="320" as="targetPoint" />
            <Array as="points">
              <mxPoint x="494.41" y="380" />
            </Array>
          </mxGeometry>
        </mxCell>
        <mxCell id="vzT4v2eTEF_wzm0baYiw-1" value="ceshi" style="whiteSpace=wrap;html=1;" parent="1" vertex="1">
          <mxGeometry x="210" y="740" width="120" height="60" as="geometry" />
        </mxCell>
      </root>
    </mxGraphModel>
  </diagram>
</mxfile>
